<svg width="16" height="16" viewBox="0 0 16 16" fill="none" xmlns="http://www.w3.org/2000/svg">
<g opacity="0.72" clip-path="url(#clip0_201_1165)">
<path d="M8.5 2C8.22386 2 8 2.22386 8 2.5V3.56678C8 3.99503 7.90831 4.41832 7.7311 4.80819L3.553 14H5C5.21686 14 5.4137 13.8733 5.50344 13.6758L9.91037 3.98058C9.96944 3.85063 10 3.70953 10 3.56678V2.5C10 1.11929 11.1193 0 12.5 0C13.8807 0 15 1.11929 15 2.5V2.95906L15.9965 14.9169C16.0424 15.4673 15.6334 15.9507 15.083 15.9965C14.5326 16.0424 14.0493 15.6334 14.0034 15.083L13.9965 15H12.5C11.9477 15 11.5 14.5523 11.5 14C11.5 13.4477 11.9477 13 12.5 13H13.8298L13.7465 12H12.2415C11.6892 12 11.2415 11.5523 11.2415 11C11.2415 10.4477 11.6892 10 12.2415 10H13.5798L13.4965 9H12C11.4477 9 11 8.55229 11 8C11 7.44772 11.4477 7 12 7H13.3298L13.0034 3.08304L13.0032 3.07999C13.0006 3.04772 12.9995 3.01567 13 2.98394V2.5C13 2.22386 12.7761 2 12.5 2C12.2239 2 12 2.22386 12 2.5V3.56678C12 3.99503 11.9083 4.41832 11.7311 4.80819L7.32417 14.5034C6.90989 15.4148 6.00114 16 5 16H1C0.447715 16 0 15.5523 0 15C0 14.4477 0.447715 14 1 14C1.21686 14 1.4137 13.8733 1.50344 13.6758L5.91037 3.98058C5.96944 3.85063 6 3.70953 6 3.56678V2.5C6 1.11929 7.11929 0 8.5 0C9.05229 0 9.5 0.447715 9.5 1C9.5 1.55228 9.05229 2 8.5 2Z" fill="white"/>
</g>
<defs>
<clipPath id="clip0_201_1165">
<rect width="16" height="16" fill="white"/>
</clipPath>
</defs>
</svg>
