<svg width="16" height="16" viewBox="0 0 16 16" fill="none" xmlns="http://www.w3.org/2000/svg">
<g opacity="0.72" clip-path="url(#clip0_201_1160)">
<path fill-rule="evenodd" clip-rule="evenodd" d="M8.84807 0.470001C8.66533 0.17762 8.34486 0 8.00007 0C7.65528 0 7.33481 0.17762 7.15207 0.470001L4.63332 4.5H3C2.44772 4.5 2 4.94772 2 5.5V7C2 7.55228 2.44772 8 3 8C3.55228 8 4 7.55228 4 7V6.5H5V9.30686L3.18285 13.8497L2.62839 14.0715C2.1156 14.2766 1.86619 14.8586 2.0713 15.3714C2.27641 15.8842 2.85838 16.1336 3.37117 15.9285L7.99978 14.077L12.6284 15.9285C13.1412 16.1336 13.7231 15.8842 13.9283 15.3714C14.1334 14.8586 13.884 14.2766 13.3712 14.0715L12.8167 13.8497L11 9.30797V6.5H12V7C12 7.55228 12.4477 8 13 8C13.5523 8 14 7.55228 14 7V5.5C14 4.94772 13.5523 4.5 13 4.5H11.3668L8.84807 0.470001ZM9.00832 4.5L8.00007 2.8868L6.99182 4.5H9.00832ZM9 6.5H7V8.5H9V6.5ZM10.2523 12.824L9.32274 10.5H6.67681L5.74721 12.824L7.62839 12.0715C7.8668 11.9762 8.13276 11.9762 8.37117 12.0715L10.2523 12.824Z" fill="white"/>
</g>
<defs>
<clipPath id="clip0_201_1160">
<rect width="16" height="16" fill="white"/>
</clipPath>
</defs>
</svg>
