<svg width="16" height="16" viewBox="0 0 16 16" fill="none" xmlns="http://www.w3.org/2000/svg">
<g opacity="0.72">
<path d="M4.58152 0.292889C4.97205 -0.097633 5.60522 -0.0976292 5.99574 0.292898C6.46334 0.760505 6.63178 1.31699 6.56215 1.87404C6.50895 2.29958 6.31374 2.68744 6.20307 2.90733L6.18304 2.94722C6.08313 3.14702 6.03659 3.25179 6.01539 3.3131C6.38614 3.70496 6.37959 4.32324 5.99574 4.7071C5.60522 5.09763 4.97206 5.09763 4.58153 4.70712C4.11392 4.23952 3.94546 3.68303 4.01509 3.12597C4.06828 2.70043 4.26349 2.31255 4.37416 2.09266L4.39419 2.05278C4.4941 1.85296 4.54065 1.7482 4.56185 1.68688C4.19111 1.29502 4.19767 0.67674 4.58152 0.292889Z" fill="white"/>
<path d="M7.58152 0.292889C7.97205 -0.097633 8.60522 -0.0976292 8.99574 0.292898C9.46334 0.760505 9.63178 1.31699 9.56215 1.87404C9.50895 2.29958 9.31374 2.68744 9.20307 2.90733L9.18304 2.94722C9.08313 3.14702 9.03659 3.25179 9.01539 3.3131C9.38614 3.70496 9.37959 4.32324 8.99574 4.7071C8.60522 5.09763 7.97206 5.09763 7.58153 4.70712C7.11392 4.23952 6.94546 3.68303 7.01509 3.12597C7.06828 2.70043 7.26349 2.31255 7.37416 2.09266L7.39419 2.05278C7.4941 1.85296 7.54065 1.7482 7.56185 1.68688C7.19111 1.29502 7.19767 0.67674 7.58152 0.292889Z" fill="white"/>
<path d="M11.9957 0.292898C11.6052 -0.0976292 10.9721 -0.097633 10.5815 0.292889C10.1977 0.67674 10.1911 1.29502 10.5618 1.68688C10.5406 1.7482 10.4941 1.85296 10.3942 2.05278L10.3742 2.09266C10.2635 2.31255 10.0683 2.70043 10.0151 3.12597C9.94546 3.68303 10.1139 4.23952 10.5815 4.70712C10.9721 5.09763 11.6052 5.09763 11.9957 4.7071C12.3796 4.32324 12.3861 3.70496 12.0154 3.3131C12.0366 3.25179 12.0831 3.14702 12.183 2.94722L12.2031 2.90733C12.3137 2.68744 12.5089 2.29958 12.5621 1.87404C12.6318 1.31699 12.4633 0.760505 11.9957 0.292898Z" fill="white"/>
<path fill-rule="evenodd" clip-rule="evenodd" d="M8 6.49982C8.41783 6.18597 8.9372 6 9.5 6C10.0628 6 10.5822 6.18597 11 6.49982C11.4178 6.18597 11.9372 6 12.5 6C13.8807 6 15 7.11929 15 8.5V10.5C15 11.0523 14.5523 11.5 14 11.5C13.4477 11.5 13 11.0523 13 10.5V8.5C13 8.22386 12.7761 8 12.5 8C12.2239 8 12 8.22386 12 8.5V13.5C12 13.7761 12.2239 14 12.5 14C12.7761 14 13 13.7761 13 13.5V13C13 12.4477 13.4477 12 14 12H15C15.5523 12 16 12.4477 16 13C16 13.5523 15.5523 14 15 14H14.95C14.7184 15.1411 13.7095 16 12.5 16C11.9372 16 11.4178 15.814 11 15.5002C10.5822 15.814 10.0628 16 9.5 16C8.9372 16 8.41783 15.814 8 15.5002C7.58217 15.814 7.0628 16 6.5 16C5.9372 16 5.41783 15.814 5 15.5002C4.58217 15.814 4.0628 16 3.5 16C2.11929 16 1 14.8807 1 13.5V11.5C1 10.9477 1.44772 10.5 2 10.5C2.55228 10.5 3 10.9477 3 11.5V13.5C3 13.7761 3.22386 14 3.5 14C3.77614 14 4 13.7761 4 13.5V8.5C4 8.22386 3.77614 8 3.5 8C3.22386 8 3 8.22386 3 8.5V9C3 9.55228 2.55228 10 2 10H1C0.447715 10 0 9.55228 0 9C0 8.44772 0.447715 8 1 8H1.05001C1.28164 6.85888 2.29052 6 3.5 6C4.0628 6 4.58217 6.18597 5 6.49982C5.41783 6.18597 5.9372 6 6.5 6C7.0628 6 7.58217 6.18597 8 6.49982ZM10 13.5V8.5C10 8.22386 9.77614 8 9.5 8C9.22386 8 9 8.22386 9 8.5V13.5C9 13.7761 9.22386 14 9.5 14C9.77614 14 10 13.7761 10 13.5ZM6 13.5V8.5C6 8.22386 6.22386 8 6.5 8C6.77614 8 7 8.22386 7 8.5V13.5C7 13.7761 6.77614 14 6.5 14C6.22386 14 6 13.7761 6 13.5Z" fill="white"/>
</g>
</svg>
